<svg height="512" viewBox="0 0 60 60" width="512" xmlns="http://www.w3.org/2000/svg"><g id="Page-1" fill="none" fill-rule="evenodd"><g id="046---Any-Solvent" fill="#fff" fill-rule="nonzero"><path id="Shape" d="m33.684 15.441c-.6260258-1.480044-2.0770032-2.4417497-3.684-2.4417497s-3.0579742.9617057-3.684 2.4417497l-11 26c-.8610119 2.034617.090383 4.381988 2.125 5.2429999s4.381988-.0903829 5.243-2.1249999l1.928-4.559h10.776l1.928 4.559c.861012 2.034617 3.208383 2.9860118 5.243 2.1249999s2.9860119-3.2083829 2.125-5.2429999zm9.17 28.311c-.1988812.492336-.586276.8847712-1.076 1.09-1.0170942.4104-2.1763778-.0599506-2.62-1.063l-2.186-5.169c-.1566411-.3698396-.5193562-.6100744-.921-.61h-12.1c-.4016438-.0000744-.7643589.2401604-.921.61l-2.186 5.169c-.2749894.6630997-.8842654 1.1279618-1.5964483 1.2180498-.712183.0900879-1.4180215-.2084182-1.8494655-.7821573-.431444-.573739-.5223083-1.3346974-.2380862-1.9938925l11-26c.3130129-.740022 1.0385016-1.2208748 1.842-1.2208748s1.5289871.4808528 1.842 1.2208748l11 26c.2071496.4886247.2107491 1.0397111.01 1.531z"/><path id="Shape" d="m30.921 24.31c-.1565064-.370011-.5192508-.6104374-.921-.6104374s-.7644936.2404264-.921.6104374l-3.512 8.3c-.1308141.3088605-.0980687.6627333.0871994.9423452.1852681.279612.4983798.4477169.8338006.4476548h7.024c.3354208.0000621.6485325-.1680428.8338006-.4476548.1852681-.2796119.2180135-.6334847.0871994-.9423452zm-2.921 7.69 2-4.734 2 4.734z"/></g></g></svg>